<?xml version="1.0" encoding="utf-8"?>
<svg version="1.1" id="Layer_1" x="0px" y="0px" viewBox="0 0 127.696 127.087" style="enable-background:new 0 0 512 512;" xmlns="http://www.w3.org/2000/svg">
  <g transform="matrix(1, 0, 0, 1, 1, 1)">
    <g>
      <g>
        <path d="M 123.587 109.527 L 122.734 109.527 L 122.734 10.634 C 122.734 4.236 118.893 -1 114.201 -1 L 11.801 -1 C 7.107 -1 3.267 4.236 3.267 10.634 L 3.267 109.527 L 2.413 109.527 C 0.493 109.527 -1 111.564 -1 114.181 L -1 122.325 C -1 124.943 0.493 126.979 2.413 126.979 L 123.587 126.979 C 125.507 126.979 127 124.943 127 122.325 L 127 114.181 C 127 111.564 125.507 109.527 123.587 109.527 Z M 7.533 10.634 C 7.533 7.435 9.453 4.817 11.801 4.817 L 114.201 4.817 C 116.547 4.817 118.467 7.435 118.467 10.634 L 118.467 109.527 L 74.093 109.527 L 73.667 111.563 C 73.64 111.6 73.61 111.641 73.576 111.684 C 73.346 111.99 72.973 112.436 72.6 112.436 L 55.533 112.436 C 55.213 112.436 55.001 112.363 54.84 112.218 C 54.68 112.072 54.573 111.854 54.467 111.563 L 54.04 109.527 L 7.533 109.527 L 7.533 10.634 Z M 122.734 121.162 L 3.267 121.162 L 3.267 115.345 L 51.267 115.345 C 52.334 117.09 53.827 118.253 55.533 118.253 L 72.6 118.253 C 74.307 118.253 75.8 117.09 76.867 115.345 L 122.734 115.345 L 122.734 121.162 Z" style=""/>
        <path d="M 43.8 71.715 C 45.72 71.715 47.427 71.134 49.347 69.679 C 50.2 68.807 50.627 67.062 49.987 65.607 C 49.347 64.444 48.067 63.862 47 64.735 C 45.934 65.607 44.867 65.898 43.8 65.898 C 40.173 65.898 37.401 62.117 37.401 57.172 C 37.401 52.227 40.173 48.446 43.8 48.446 C 44.867 48.446 45.934 48.737 46.787 49.61 C 47.853 50.482 49.133 50.192 49.774 48.737 C 50.413 47.283 50.2 45.537 49.133 44.665 C 47.427 43.21 45.72 42.629 43.801 42.629 C 37.827 42.629 33.133 49.028 33.133 57.172 C 33.133 65.317 37.827 71.715 43.8 71.715 Z" style=""/>
        <path d="M 114.201 100.802 L 114.201 13.543 C 114.201 11.798 113.347 10.634 112.067 10.634 L 13.933 10.634 C 12.653 10.634 11.801 11.798 11.801 13.543 L 11.801 100.802 C 11.801 102.547 12.653 103.71 13.933 103.71 L 112.067 103.71 C 113.347 103.71 114.201 102.547 114.201 100.802 Z M 109.933 97.893 L 16.067 97.893 L 16.067 16.452 L 109.933 16.452 L 109.933 97.893 Z" style=""/>
        <path d="M 65.133 65.898 L 61.721 65.898 C 60.44 65.898 58.947 65.025 58.094 63.862 C 57.24 62.699 55.96 62.699 55.107 63.862 C 54.253 65.025 54.253 66.771 55.107 67.934 C 56.814 70.261 59.16 71.715 61.719 71.715 L 65.133 71.715 C 68.76 71.715 71.533 67.934 71.533 62.99 C 71.533 58.045 68.76 54.264 65.133 54.264 L 63.001 54.264 L 60.867 54.264 C 59.587 54.264 58.733 53.1 58.733 51.355 C 58.733 49.61 59.587 48.447 60.867 48.447 L 64.281 48.447 C 65.561 48.447 67.053 49.319 67.907 50.483 C 68.76 51.646 70.04 51.646 70.893 50.483 C 71.747 49.319 71.747 47.574 70.893 46.41 C 69.187 44.083 66.841 42.629 64.281 42.629 L 60.867 42.629 C 57.241 42.629 54.467 46.41 54.467 51.355 C 54.467 56.3 57.241 60.081 60.867 60.081 L 63.001 60.081 L 65.133 60.081 C 66.413 60.081 67.267 61.244 67.267 62.99 C 67.267 64.735 66.413 65.898 65.133 65.898 Z" style=""/>
        <path d="M 86.467 65.898 L 83.053 65.898 C 81.773 65.898 80.281 65.025 79.427 63.862 C 78.573 62.699 77.293 62.699 76.441 63.862 C 75.587 65.025 75.587 66.771 76.441 67.934 C 78.147 70.261 80.493 71.715 83.053 71.715 L 86.467 71.715 C 90.093 71.715 92.867 67.934 92.867 62.99 C 92.867 58.045 90.093 54.264 86.467 54.264 L 84.333 54.264 L 82.2 54.264 C 80.92 54.264 80.067 53.1 80.067 51.355 C 80.067 49.61 80.92 48.447 82.2 48.447 L 85.613 48.447 C 86.893 48.447 88.387 49.319 89.24 50.483 C 90.093 51.646 91.373 51.646 92.227 50.483 C 93.08 49.319 93.08 47.574 92.227 46.41 C 90.52 44.083 88.173 42.629 85.613 42.629 L 82.2 42.629 C 78.573 42.629 75.8 46.41 75.8 51.355 C 75.8 56.3 78.573 60.081 82.2 60.081 L 84.333 60.081 L 86.467 60.081 C 87.747 60.081 88.599 61.244 88.599 62.99 C 88.599 64.735 87.747 65.898 86.467 65.898 Z" style=""/>
      </g>
    </g>
  </g>
  <g/>
  <g/>
  <g/>
  <g/>
  <g/>
  <g/>
  <g/>
  <g/>
  <g/>
  <g/>
  <g/>
  <g/>
  <g/>
  <g/>
  <g/>
</svg>